<svg width="200" height="36" viewBox="0 0 200 36" fill="none" xmlns="http://www.w3.org/2000/svg">
<g clip-path="url(#clip0_909_165)">
<path d="M29.3179 29.1037C35.5808 22.8408 35.5808 12.6866 29.3179 6.42367C23.0549 0.16077 12.9008 0.160771 6.63785 6.42368C0.374944 12.6866 0.374943 22.8408 6.63785 29.1037C12.9008 35.3666 23.0549 35.3666 29.3179 29.1037Z" fill="#EA4724"/>
<path d="M23.443 27.2239C23.2436 27.345 23.0397 27.4588 22.8324 27.567C22.4159 27.7838 21.9884 27.9787 21.5515 28.1509C21.1091 28.3262 20.6571 28.4767 20.1979 28.6016C19.7239 28.7328 19.2397 28.8243 18.7505 28.8752C18.2596 28.9292 17.7655 28.9488 17.2719 28.9338C16.7725 28.9175 16.2749 28.865 15.7831 28.7769C14.7833 28.5981 13.8144 28.2769 12.9058 27.8229C10.5655 26.6469 8.71196 24.687 7.66829 22.2848C7.61434 22.1651 7.56697 22.0427 7.51697 21.9213L7.44625 21.7374C7.42289 21.6759 7.39987 21.6144 7.37849 21.5522L7.3127 21.366L7.2525 21.1782C7.21171 21.0532 7.17717 20.9266 7.14 20.8003C7.07289 20.5463 7.0071 20.291 6.95612 20.0331C6.90513 19.7752 6.86105 19.5154 6.82454 19.2545C6.75521 18.7331 6.72224 18.2075 6.72585 17.6815C6.72794 17.155 6.7663 16.6293 6.84066 16.1081C6.87849 15.8476 6.92158 15.5877 6.97947 15.3305C7.00579 15.2016 7.03835 15.0736 7.06895 14.9456C7.09954 14.8177 7.13474 14.6907 7.17125 14.5641C7.20776 14.4374 7.24427 14.3111 7.28737 14.1864L7.34987 13.9993L7.4173 13.8137C7.46072 13.6894 7.51105 13.568 7.55875 13.4453C7.60645 13.3226 7.65941 13.2026 7.7127 13.0835C7.76599 12.9644 7.82158 12.844 7.88046 12.7269C7.90974 12.668 7.93802 12.6088 7.96829 12.5506L8.06006 12.3762C8.12059 12.2598 8.18671 12.146 8.2502 12.0318L8.35052 11.8627L8.40085 11.7785L8.45349 11.6953C9.56566 9.919 11.1703 8.47492 13.0186 7.57788C13.9354 7.12879 14.9119 6.81352 15.9183 6.6417C16.9048 6.47244 17.9106 6.44674 18.9045 6.56538C19.875 6.67784 20.8234 6.93392 21.7186 7.32525C22.5992 7.71242 23.4101 8.22393 24.0972 8.85255C23.987 8.81406 23.8782 8.77492 23.7683 8.73939C23.6584 8.70387 23.5499 8.6667 23.4393 8.63347L23.1104 8.53742C23.0005 8.50781 22.8913 8.47854 22.7814 8.45058C22.3479 8.34211 21.9086 8.25831 21.4657 8.19959C20.6073 8.08505 19.7384 8.07279 18.8772 8.16308C17.2304 8.32666 15.6482 8.88843 14.267 9.79992C14.2249 9.82722 14.1841 9.8565 14.1426 9.88446C14.1012 9.91242 14.0601 9.94137 14.0193 9.97064L13.8969 10.0578L13.7765 10.1473C13.6176 10.268 13.4617 10.3924 13.3107 10.5223C13.1597 10.6522 13.0114 10.7838 12.8699 10.9223C12.7976 10.9904 12.7298 11.0624 12.6594 11.1318C12.589 11.2012 12.5212 11.2729 12.4555 11.347C12.189 11.6366 11.9404 11.9422 11.7111 12.2621C11.5962 12.4213 11.489 12.5848 11.3821 12.7489C11.3314 12.8325 11.2785 12.9134 11.2305 12.9993L11.1591 13.1252L11.089 13.2532C10.9022 13.5932 10.7374 13.9448 10.5956 14.3058C10.4523 14.6653 10.3314 15.0333 10.2337 15.4078C10.0393 16.1568 9.9376 16.9268 9.93079 17.7006C9.92816 17.7993 9.93079 17.8943 9.93079 17.9914C9.93079 18.0884 9.93572 18.1848 9.9423 18.2815C9.95283 18.4746 9.9673 18.6674 9.98868 18.8595C10.0101 19.0516 10.037 19.2433 10.0719 19.4331C10.1068 19.6229 10.1446 19.8131 10.188 20.0016C10.3701 20.7579 10.6441 21.4891 11.0038 22.1789C11.7443 23.592 12.8174 24.8038 14.1305 25.7098C15.4581 26.6308 17.0433 27.2424 18.7466 27.4532C19.1711 27.495 19.5981 27.506 20.0242 27.4861C20.4624 27.47 20.9064 27.4305 21.3515 27.3753C21.7966 27.32 22.243 27.2476 22.689 27.1595C22.9116 27.1156 23.1344 27.067 23.3574 27.0137C23.5805 26.9604 23.8028 26.9016 24.0245 26.8371C23.8374 26.9766 23.6423 27.1035 23.443 27.2239Z" fill="white"/>
<path d="M29.1425 18.1413C29.0533 18.8124 28.8676 19.4672 28.5912 20.0853C28.3201 20.6961 27.9658 21.2666 27.5386 21.7804C27.3268 22.0348 27.0983 22.2747 26.8543 22.4985C26.612 22.7205 26.3553 22.9263 26.0859 23.1146C25.5532 23.4874 24.9749 23.7906 24.3652 24.0166C24.1244 24.1067 23.8797 24.1811 23.6333 24.2468C23.732 24.2988 23.8307 24.3491 23.9257 24.4024C24.6641 24.8083 25.3715 25.2681 26.0422 25.7781C26.7076 26.2889 27.058 26.7584 27.6001 27.385C26.9165 26.9172 26.478 26.6064 25.7488 26.2501C25.0219 25.8973 24.275 25.5875 23.5119 25.3222C22.7527 25.0554 21.9816 24.8288 21.205 24.6396C20.9899 24.5866 20.7738 24.5376 20.558 24.4906C20.2849 24.4643 20.0142 24.4294 19.7468 24.384L19.7188 24.3791C19.6058 24.3577 19.498 24.3141 19.4019 24.2509C19.3057 24.1877 19.223 24.1061 19.1586 24.0108C19.0941 23.9155 19.0491 23.8084 19.0262 23.6956C19.0033 23.5828 19.0029 23.4667 19.0251 23.3538L19.0363 23.2952C19.0775 23.0841 19.1948 22.8954 19.3659 22.765C19.537 22.6346 19.75 22.5715 19.9645 22.5876H19.9721C20.2241 22.6039 20.4745 22.6099 20.7234 22.6057C21.2134 22.5973 21.7013 22.541 22.1803 22.4376C22.4139 22.3869 22.6445 22.3233 22.8711 22.2472C23.0943 22.1717 23.313 22.0838 23.5264 21.984C23.9446 21.7882 24.3374 21.542 24.6958 21.2508C24.8716 21.1074 25.038 20.9528 25.1938 20.788C25.6558 20.3036 26.0168 19.7322 26.256 19.107C26.411 18.7012 26.5087 18.2757 26.5465 17.8429C26.5829 17.4172 26.5587 16.9885 26.4747 16.5695C26.4682 16.5366 26.4599 16.5018 26.4524 16.4679C26.4382 16.4126 26.4155 16.3222 26.4017 16.2669C26.3708 16.16 26.3389 16.0521 26.303 15.9468C26.2672 15.8416 26.2277 15.7416 26.1863 15.6406C26.1448 15.5396 26.0991 15.4409 26.0494 15.3445C25.8554 14.9559 25.6121 14.5938 25.3257 14.2672C25.2547 14.1853 25.1793 14.1074 25.1034 14.0301C25.0274 13.9528 24.9474 13.8794 24.8659 13.8084C24.5407 13.5214 24.1794 13.2781 23.7912 13.0847C23.5968 12.9864 23.3964 12.9005 23.1912 12.8274C22.3724 12.5394 21.4928 12.469 20.6386 12.6232C20.5853 12.6327 20.532 12.6426 20.479 12.6541C20.4261 12.6656 20.3731 12.6778 20.3201 12.6899C20.2188 12.7149 20.1228 12.7419 20.027 12.7735C19.8367 12.837 19.6517 12.9159 19.4741 13.0093C19.1152 13.1946 18.7893 13.4378 18.5096 13.7291C18.0807 14.1728 17.766 14.7141 17.5925 15.3063C17.419 15.8985 17.3919 16.5241 17.5136 17.1291L17.53 17.2057C17.5353 17.2314 17.5412 17.2528 17.5465 17.2768C17.558 17.3235 17.5698 17.3695 17.5833 17.4156C17.6103 17.5074 17.6415 17.5978 17.6774 17.6863C17.7496 17.864 17.84 18.0338 17.9471 18.1929C18.2253 18.604 18.6028 18.9383 19.0446 19.1647C19.4864 19.3912 19.9782 19.5025 20.4744 19.4883C20.5761 19.4856 20.6775 19.4775 20.7784 19.4639C20.877 19.4514 20.9859 19.4311 21.0744 19.412C21.2584 19.3691 21.436 19.3028 21.603 19.2146C21.6874 19.1703 21.7689 19.1209 21.8471 19.0666C21.9261 19.0115 22.0015 18.9514 22.0728 18.8866C22.366 18.6193 22.5868 18.2822 22.7149 17.9067C22.7807 17.7154 22.822 17.5164 22.8376 17.3146C22.852 17.1081 22.841 16.9006 22.8047 16.6968C22.7367 16.3058 22.5451 15.9469 22.258 15.6728C21.954 15.3822 21.5652 15.196 21.1481 15.1416C21.041 15.1275 20.933 15.122 20.8251 15.1251C20.7705 15.1251 20.7159 15.1301 20.6606 15.136C20.6053 15.1419 20.5494 15.1505 20.5001 15.16C20.2919 15.1992 20.0937 15.2796 19.9172 15.3965C19.7332 15.5188 19.5754 15.6763 19.4527 15.86C19.3253 16.0516 19.2372 16.2666 19.1938 16.4926C19.1711 16.6086 19.1601 16.7266 19.1609 16.8449C19.1622 16.9651 19.1754 17.0849 19.2004 17.2024C19.2255 17.3193 19.2658 17.4325 19.3201 17.5389C19.3475 17.593 19.378 17.6454 19.4116 17.6959C19.4463 17.747 19.4841 17.796 19.5247 17.8426C19.6943 18.0362 19.909 18.1851 20.1497 18.2761C20.2752 18.3225 20.4057 18.3537 20.5386 18.3692C20.6756 18.3837 20.8138 18.382 20.9504 18.3643C20.8181 18.4155 20.6798 18.4496 20.5389 18.4659C20.3942 18.4817 20.248 18.479 20.104 18.4577C19.8045 18.4127 19.5215 18.292 19.2816 18.107C19.0301 17.9138 18.8327 17.6588 18.7086 17.3669C18.6771 17.2937 18.6499 17.2186 18.627 17.1422C18.6047 17.0666 18.5853 16.9899 18.5701 16.912C18.5393 16.7545 18.5248 16.5942 18.5267 16.4337C18.5308 16.1048 18.6017 15.7803 18.7353 15.4797C18.8721 15.1711 19.0701 14.8934 19.3172 14.6633C19.5713 14.4272 19.871 14.2454 20.1978 14.1291C20.281 14.0988 20.3596 14.0745 20.4409 14.0524C20.5221 14.0304 20.6053 14.012 20.6876 13.9965C20.8547 13.9658 21.024 13.9489 21.1938 13.9459C21.5395 13.939 21.8839 13.9887 22.2136 14.0929C22.5483 14.1987 22.864 14.3573 23.1488 14.5626C23.438 14.7725 23.6916 15.0273 23.9001 15.3176C24.1107 15.6127 24.2726 15.9398 24.3793 16.2863C24.5894 16.9609 24.62 17.6786 24.4682 18.3686C24.3133 19.0724 23.9796 19.7245 23.4991 20.2616C23.256 20.5329 22.9789 20.7717 22.6747 20.9722C22.3677 21.1737 22.036 21.335 21.6879 21.4521C21.5193 21.5085 21.3479 21.556 21.1744 21.5945C19.9463 21.8636 18.6623 21.6741 17.5642 21.062C16.4466 20.4391 15.5932 19.4314 15.1629 18.2264C15.1323 18.1406 15.1037 18.0544 15.0777 17.9676C15.0652 17.9241 15.0517 17.8791 15.0405 17.836L15.0076 17.7103C14.6606 16.3422 14.7812 14.8974 15.3501 13.6057C15.7043 12.7946 16.2232 12.0658 16.8737 11.4656C17.5243 10.8654 18.2924 10.4068 19.1293 10.1189C19.2958 10.0616 19.4668 10.0107 19.6343 9.96724C19.7162 9.94684 19.7988 9.92579 19.8807 9.90803C19.9626 9.89026 20.0451 9.8725 20.1287 9.85638C20.7959 9.73033 21.4768 9.69316 22.1537 9.74586C22.3228 9.75869 22.4915 9.77875 22.6593 9.80178C22.827 9.8248 22.9938 9.85901 23.1583 9.89553C24.1546 10.1093 25.0985 10.5188 25.9353 11.1001C26.4922 11.4854 26.9951 11.9434 27.4307 12.462C27.6484 12.7207 27.8489 12.9934 28.031 13.2784C28.2123 13.5632 28.3742 13.86 28.5155 14.1666C28.5872 14.3192 28.6511 14.4755 28.7129 14.632C28.7747 14.7886 28.829 14.9482 28.8774 15.1087C28.9257 15.2692 28.9718 15.4304 29.0113 15.5939C29.03 15.6778 29.0497 15.761 29.0665 15.8452C29.0833 15.9294 29.0994 16.0136 29.1122 16.0982C29.2226 16.774 29.2328 17.4624 29.1425 18.1413V18.1413Z" fill="white"/>
<path d="M53.4321 12.9729C51.1788 10.9334 49.0782 10.7196 47.9209 10.7196C43.5061 10.7196 40.5222 13.9762 40.5222 18.4535C40.5222 22.7462 43.6278 26.065 47.9515 26.065C50.3857 26.065 52.2749 24.817 53.4321 23.7206V27.4048C51.3926 28.6219 49.2607 28.9268 47.8601 28.9268C44.1759 28.9268 41.862 27.2522 40.6745 26.1258C38.2995 23.9031 37.418 21.315 37.418 18.4531C37.418 14.7081 38.9709 12.1199 40.6745 10.5061C42.7752 8.52716 45.2111 7.85742 48.0124 7.85742C49.8696 7.85742 51.666 8.19229 53.4321 9.31894V12.9729Z" fill="white"/>
<path d="M67.8638 11.1476H59.7648V16.2934H67.6204V19.2161H59.7648V25.6101H67.8638V28.5332H56.6592V8.22461H67.8638V11.1476Z" fill="white"/>
<path d="M74.381 8.22461V25.6101H80.3487V28.5332H71.2754V8.22461H74.381Z" fill="white"/>
<path d="M93.868 11.1476H85.7687V16.2934H93.6243V19.2161H85.7687V25.6101H93.868V28.5332H82.6631V8.22461H93.868V11.1476Z" fill="white"/>
<path d="M100.353 8.22461C102.972 8.22461 104.616 8.55948 105.956 9.80816C107.052 10.843 107.569 12.1522 107.569 13.8269C107.569 14.6187 107.447 15.4407 106.961 16.2322C106.613 16.8472 106.08 17.3371 105.438 17.6325C105.803 17.724 107.052 18.0601 108.057 19.094C109.153 20.2509 109.396 21.6516 109.396 22.9003C109.396 24.3615 109.031 25.5187 108.057 26.5539C106.443 28.2588 103.915 28.5328 102.363 28.5328H97.2783V8.22461H100.353ZM100.384 16.9631H101.328C102.089 16.9631 103.124 16.8717 103.855 16.1716C104.555 15.5016 104.646 14.5578 104.646 13.8575C104.646 13.2486 104.555 12.5177 103.915 11.9088C103.215 11.2391 102.333 11.1476 101.448 11.1476H100.383L100.384 16.9631ZM100.384 25.6101H102.27C103.153 25.6101 104.554 25.4582 105.345 24.8187C105.954 24.3315 106.35 23.4789 106.35 22.5654C106.35 21.743 106.046 20.9519 105.528 20.4342C104.676 19.6118 103.427 19.5207 102.331 19.5207H100.383L100.384 25.6101Z" fill="white"/>
<path d="M116.308 8.22461C118.775 8.22461 120.357 8.52921 121.667 9.41211C123.889 10.9039 124.072 13.3095 124.072 14.1924C124.072 17.1154 122.276 19.2467 119.566 19.8555L125.899 28.5332H122.154L116.338 20.221H115.79V28.5332H112.685V8.22461H116.308ZM115.79 17.5417H116.764C117.617 17.5417 121.088 17.4503 121.088 14.223C121.088 11.3611 118.378 11.0868 116.855 11.0868H115.79V17.5417Z" fill="white"/>
<path d="M132.566 19.7644L125.899 8.22461H129.431L134.12 16.3542L138.809 8.22461H142.341L135.673 19.7644V28.5332H132.566V19.7644Z" fill="white"/>
<path d="M150.408 11.1476V28.5332H147.301V11.1476H142.644V8.22461H155.066V11.1476H150.408Z" fill="white"/>
<path d="M160.304 16.2628H169.013V8.22461H172.118V28.5332H169.013V19.1858H160.304V28.5332H157.198V8.22461H160.304V16.2628Z" fill="white"/>
<path d="M175.771 28.5321L180.034 6.70117L187.098 22.4729L194.222 6.70117L198.059 28.5321H194.892L192.822 16.2923L186.915 29.4758L181.07 16.2617L178.938 28.5314L175.771 28.5321Z" fill="white"/>
</g>
<defs>
<clipPath id="clip0_909_165">
<rect width="200" height="35.5263" fill="white"/>
</clipPath>
</defs>
</svg>
